<svg width="16" height="16" viewBox="0 0 16 16" fill="none" xmlns="http://www.w3.org/2000/svg">
<path d="M9.26211 7.99893L14.6327 2.64085C14.8679 2.40566 15 2.08668 15 1.75408C15 1.42148 14.8679 1.1025 14.6327 0.867312C14.3975 0.632126 14.0785 0.5 13.7459 0.5C13.4133 0.5 13.0943 0.632126 12.8592 0.867312L7.50107 6.23789L2.14298 0.867312C1.9078 0.632126 1.58882 0.5 1.25621 0.5C0.92361 0.5 0.604629 0.632126 0.369443 0.867312C0.134258 1.1025 0.0021315 1.42148 0.00213149 1.75408C0.00213149 2.08668 0.134258 2.40566 0.369443 2.64085L5.74002 7.99893L0.369443 13.357C0.252379 13.4731 0.159463 13.6113 0.0960548 13.7635C0.0326462 13.9157 0 14.0789 0 14.2438C0 14.4087 0.0326462 14.5719 0.0960548 14.7241C0.159463 14.8763 0.252379 15.0144 0.369443 15.1306C0.485551 15.2476 0.623689 15.3405 0.775888 15.4039C0.928086 15.4674 1.09133 15.5 1.25621 15.5C1.42109 15.5 1.58434 15.4674 1.73654 15.4039C1.88874 15.3405 2.02687 15.2476 2.14298 15.1306L7.50107 9.75998L12.8592 15.1306C12.9753 15.2476 13.1134 15.3405 13.2656 15.4039C13.4178 15.4674 13.581 15.5 13.7459 15.5C13.9108 15.5 14.074 15.4674 14.2262 15.4039C14.3784 15.3405 14.5166 15.2476 14.6327 15.1306C14.7498 15.0144 14.8427 14.8763 14.9061 14.7241C14.9695 14.5719 15.0021 14.4087 15.0021 14.2438C15.0021 14.0789 14.9695 13.9157 14.9061 13.7635C14.8427 13.6113 14.7498 13.4731 14.6327 13.357L9.26211 7.99893Z" fill="white"/>
</svg>
